<svg width="128" height="128" viewBox="0 0 32 32" xmlns:xlink="http://www.w3.org/1999/xlink" xmlns="http://www.w3.org/2000/svg">
	<defs>
		<linearGradient id="topBorderGradient">
			<stop style="stop-color:#2f5aa5" offset="0" />
			<stop style="stop-color:#16b6b8" offset="1" />
		</linearGradient>
		<radialGradient xlink:href="#topBorderGradient" id="topBorderRadialGradient"
			cx="18.140833"
			cy="18.955849"
			fx="18.140833"
			fy="18.955849"
			r="15.263274"
			gradientTransform="matrix(1,0,0,1.05,0.05,-1.5)"
			gradientUnits="userSpaceOnUse"
		/>
		<linearGradient id="bottomBorderGradient">
			<stop style="stop-color:#0cc4d9" offset="0" />
			<stop style="stop-color:#19b39f" offset="1" />
		</linearGradient>
		<radialGradient xlink:href="#bottomBorderGradient" id="bottomBorderRadialGradient"
			cx="13"
			cy="23"
			fx="12"
			fy="22"
			r="14"
			gradientUnits="userSpaceOnUse"
		/>
		<linearGradient id="topGradient">
			<stop style="stop-color:#70ffdf;stop-opacity:1;" offset="0" />
			<stop style="stop-color:#5aebeb;stop-opacity:1;" offset="1" />
		</linearGradient>
		<radialGradient xlink:href="#topGradient" id="topRadialGradient"
			cx="17"
			cy="17"
			fx="17"
			fy="17"
			r="12"
			gradientUnits="userSpaceOnUse"
		/>
		<linearGradient id="bottomGradient">
			<stop style="stop-color:#8af6fa;stop-opacity:1;" offset="0" />
			<stop style="stop-color:#00ffe0;stop-opacity:1;" offset="1" />
		</linearGradient>
		<radialGradient xlink:href="#bottomGradient" id="bottomRadialGradient"
			cx="17"
			cy="20"
			fx="17"
			fy="20"
			r="11"
			gradientTransform="matrix(1.9,-0.02,0.02,1.5,-15.1,-10.1)"
			gradientUnits="userSpaceOnUse"
		/>
	</defs>
	<g>
		<path
			style="fill:url(#bottomBorderRadialGradient)"
			d="m 17.76731,10.837957 c -1.575277,-0.05243 -2.846483,0.648 -3.796266,1.340071 -0.949783,0.69207 -1.709883,1.440959 -2.429103,2.037197 -0.719223,0.596237 -1.368121,1.019766 -1.9378663,1.210037 -0.5697446,0.19027 -1.0671267,0.24189 -1.9559248,-0.06863 C 7.3920562,15.267161 6.1353251,14.512003 5.3490797,14.043651 L 3.644192,13.028666 2.3817803,14.560175 c -2.08116948,2.52507 -2.66640963,6.339446 -1.1721103,10.404512 1.0520376,2.861944 3.4682962,4.62209 5.9273747,5.613125 2.459079,0.991036 5.0837853,1.338424 7.3144023,1.412312 2.671455,0.08848 5.158893,-0.4208 7.303566,-1.397863 l 0.538195,-0.24562 0.355788,-0.474984 c 1.099527,-1.472335 2.427453,-3.63477 2.954657,-6.339149 0.527203,-2.704377 0.09924,-6.015713 -2.16723,-8.979558 -1.739335,-2.274514 -3.56888,-3.645089 -5.669113,-3.714993 z m -0.153513,4.619813 c 0.133704,0.0044 0.803485,0.14381 2.149171,1.903551 1.490142,1.948647 1.63027,3.603053 1.302144,5.286235 -0.283993,1.456785 -1.04144,2.826063 -1.784354,3.915463 -1.361093,0.531827 -2.913433,0.863861 -4.675799,0.805487 C 12.76436,27.307538 10.580371,26.981457 8.8654109,26.290309 7.150451,25.599162 6.0275716,24.670372 5.5495486,23.369966 4.8820407,21.55409 4.931256,20.288382 5.2154339,19.22875 c 0.3685085,0.189927 0.483814,0.344697 0.9084307,0.493045 1.7589378,0.614519 3.5160101,0.565682 4.9448974,0.08849 1.428886,-0.477186 2.523228,-1.288461 3.424224,-2.035391 0.900996,-0.746929 1.638836,-1.450182 2.201544,-1.860205 0.562708,-0.410024 0.819091,-0.46026 0.919267,-0.456925 z"
		/>
		<path
			style="fill:url(#bottomRadialGradient)"
			d="M 17.690112,13.147769 C 14.339207,13.036238 12.181528,19.389711 6.8860554,17.539635 6.0236484,17.238336 4.7952613,16.405911 4.1652108,16.030603 2.6369521,17.88483 2.0952646,20.673157 3.3795023,24.166775 c 1.5300606,4.16235 7.0774987,5.378112 11.1487157,5.512969 2.331369,0.07722 4.460881,-0.367561 6.267882,-1.190788 1.941802,-2.600192 4.559867,-7.618971 0.803255,-12.531462 -1.542509,-2.017129 -2.792275,-2.772548 -3.909243,-2.809725 z"
		/>
	</g>
	<g>
		<path
			style="fill:url(#topBorderRadialGradient)"
			d="M 9.8153797,0 10.64254,3.572318 c 0,0 0.274187,1.4651882 0.01445,2.6313786 C 10.527113,6.7867918 10.312357,7.1892507 10.00862,7.4534661 9.7048877,7.7176815 9.2229786,7.9939533 7.9876826,7.9754074 6.9964113,7.9605248 6.1871659,8.0151216 5.4339629,8.1921304 4.68076,8.3691391 3.8772266,8.6422154 3.2197761,9.505111 2.5623255,10.368006 2.5660992,11.73754 2.8964976,12.485052 c 0.3303982,0.747512 0.7744433,1.170287 1.222679,1.542346 0.8964715,0.744118 1.9219114,1.240192 3.082885,1.522479 1.1609736,0.282288 2.7502861,0.507735 4.1231554,-0.84522 1.8419,-1.815181 3.931449,-3.35281 5.717877,-3.640947 1.786427,-0.288137 3.681179,0.165142 6.456539,3.79446 1.351268,1.767042 1.518989,4.149688 1.509838,6.25607 -0.0045,1.053193 -0.159829,1.857952 0.173378,3.111782 0.166603,0.626916 0.793879,1.791331 2.010105,2.109438 1.216227,0.318107 1.975672,-0.138535 2.548302,-0.48221 1.007583,-0.604718 1.538277,-1.662447 1.724755,-2.551913 0.186477,-0.889466 0.141458,-1.728309 0.01264,-2.595258 C 31.221018,18.972181 30.56922,17.097809 29.681655,15.147133 27.90653,11.245784 25.261221,7.1433159 22.166786,4.6703813 18.531244,1.7650174 13.394922,0.79465113 13.394922,0.79465113 Z m 5.4108523,6.2416232 c 0.248109,0.09191 0.463633,0.2591449 0.720604,0.363011 -0.26289,0.052628 -0.501852,0.1492473 -0.754918,0.2203351 0.03798,-0.217601 0.01148,-0.3732887 0.03432,-0.5833461 z"
		/>
		<path
			style="fill:url(#topRadialGradient)"
			d="m 12.894267,3.0508521 c 0,0 1.69628,7.3349679 -4.9414445,7.2353119 -6.9519478,-0.104373 0.082333,4.4154 1.7501582,2.771769 3.9186813,-3.8618389 9.4632503,-7.6730873 15.6332883,0.395424 3.75661,4.912492 0.464253,12.06997 3.215995,10.418463 C 31.255255,22.249571 25.859862,10.580976 20.723266,6.476039 17.799129,4.1391989 12.894267,3.0508521 12.894267,3.0508521 Z"
		/>
	</g>
</svg>
